<svg width="1959" height="1558" viewBox="0 0 1959 1558" fill="none" xmlns="http://www.w3.org/2000/svg">
<path fill-rule="evenodd" clip-rule="evenodd" d="M1010.31 0.0118408C1196.04 1.96686 1268.02 238.785 1417.32 344.377C1564.54 448.49 1791.19 455.593 1874.75 611.347C1960.87 771.886 1926.98 976.747 1843.35 1138.49C1765.31 1289.41 1604.26 1381.98 1442.18 1447.91C1306.06 1503.29 1157.29 1493.53 1010.31 1477.38C879.536 1463 766.73 1408.31 645.054 1360.29C476.689 1293.85 267.731 1285.33 162.901 1142.95C47.9774 986.87 -13.1323 760.071 78.1109 590.301C169.137 420.936 430.666 440.9 596.74 335.739C751.305 237.866 824.917 -1.93973 1010.31 0.0118408Z" fill="#C4C4C4" fill-opacity="0.5"/>
<g filter="url(#filter0_f_469_2)">
<path fill-rule="evenodd" clip-rule="evenodd" d="M1010.31 34.0118C1196.04 35.9669 1268.02 272.785 1417.32 378.377C1564.54 482.49 1791.19 489.593 1874.75 645.347C1960.87 805.886 1926.98 1010.75 1843.35 1172.49C1765.31 1323.41 1604.26 1415.98 1442.18 1481.91C1306.06 1537.29 1157.29 1527.53 1010.31 1511.38C879.536 1497 766.73 1442.31 645.054 1394.29C476.689 1327.85 267.731 1319.33 162.901 1176.95C47.9774 1020.87 -13.1323 794.071 78.1109 624.301C169.137 454.936 430.666 474.9 596.74 369.739C751.305 271.866 824.917 32.0603 1010.31 34.0118Z" fill="#C4C4C4" fill-opacity="0.25"/>
</g>
<defs>
<filter id="filter0_f_469_2" x="0.5" y="0.5" width="1958" height="1557" filterUnits="userSpaceOnUse" color-interpolation-filters="sRGB">
<feFlood flood-opacity="0" result="BackgroundImageFix"/>
<feBlend mode="normal" in="SourceGraphic" in2="BackgroundImageFix" result="shape"/>
<feGaussianBlur stdDeviation="16.75" result="effect1_foregroundBlur_469_2"/>
</filter>
</defs>
</svg>
